<svg id="Layer_1" data-name="Layer 1" xmlns="http://www.w3.org/2000/svg" viewBox="0 0 163 100"><defs><style>.cls-1{fill:#a78de6;}.cls-2{fill:none;stroke:#a78de6;stroke-miterlimit:10;stroke-width:3px;}</style></defs><title>Artboard 34</title><path class="cls-1" d="M115.25,55.18l39.11.32a1.5,1.5,0,0,0,0-3l-39.11-.32a1.5,1.5,0,0,0,0,3Z"/><path class="cls-1" d="M122.38,60.84l-7.88-7.66v2.12l7.31-8.7c1.23-1.47-.88-3.6-2.12-2.12l-7.31,8.7a1.53,1.53,0,0,0,0,2.12L120.26,63c1.39,1.35,3.51-.77,2.12-2.12Z"/><path class="cls-2" d="M28.17,39.77c.3,0,.59-.07.88-.09L24.84,37.2a6.12,6.12,0,0,1-3.05-5.25V27.21A6.28,6.28,0,0,1,28.16,21h0a6.28,6.28,0,0,1,6.39,6.16v1.29l6.22,3.68a13.11,13.11,0,0,0,1.5-6A13.87,13.87,0,0,0,28.17,12.54,13.87,13.87,0,0,0,14.06,26.16,13.87,13.87,0,0,0,28.17,39.77Zm0,0"/><path class="cls-2" d="M91.49,50.45a4.17,4.17,0,0,0-5.36,2.19l-9.24,22H56.32a4.21,4.21,0,0,0-1.77.4,4,4,0,0,0-2.34,3.57,4,4,0,0,0,4.11,4H79.66a4.12,4.12,0,0,0,3.81-2.48L93.75,55.61a3.92,3.92,0,0,0-2.27-5.17Zm0,0"/><path class="cls-2" d="M31.37,27.19a3.14,3.14,0,0,0-3.2-3.08h0A3.14,3.14,0,0,0,25,27.2v4.74a3.07,3.07,0,0,0,1.53,2.62l13.66,8.08a3.27,3.27,0,0,0,1.67.46,3.22,3.22,0,0,0,2.73-1.47,3,3,0,0,0-1.05-4.24L31.37,30.21Zm0,0"/><path class="cls-2" d="M71.57,66.08a5.05,5.05,0,0,0-5.14-5H47.89L35.2,49.31l5.5,3.34a10.17,10.17,0,0,0-10.31-9.58H26A10.17,10.17,0,0,0,15.62,53V79.66a2.93,2.93,0,0,0,3,2.88H37.75a2.93,2.93,0,0,0,3-2.88V73.8a6,6,0,0,1-1.34-1.3L28.06,56.45l14.18,13.2A5.24,5.24,0,0,0,45.81,71H66.43a5.05,5.05,0,0,0,5.14-5Zm0,0"/></svg>