<svg id="Layer_1" data-name="Layer 1" xmlns="http://www.w3.org/2000/svg" viewBox="0 0 184 95"><defs><style>.cls-1{fill:#a78de6;}.cls-2{fill:none;stroke:#a78de6;stroke-miterlimit:10;stroke-width:3px;}</style></defs><title>Artboard 26</title><path class="cls-1" d="M165.08,47.27,126,46.95a1.5,1.5,0,0,0,0,3l39.11.32a1.5,1.5,0,0,0,0-3Z"/><path class="cls-1" d="M158,41.61l7.88,7.66V47.14l-7.31,8.7c-1.23,1.47.88,3.6,2.12,2.12l7.31-8.7a1.53,1.53,0,0,0,0-2.12l-7.88-7.66c-1.39-1.35-3.51.77-2.12,2.12Z"/><path class="cls-2" d="M47.1,34.77c.3,0,.59-.07.88-.09L43.77,32.2a6.12,6.12,0,0,1-3.05-5.25V22.21A6.28,6.28,0,0,1,47.09,16h0a6.28,6.28,0,0,1,6.39,6.16v1.29l6.22,3.68a13.11,13.11,0,0,0,1.5-6A13.87,13.87,0,0,0,47.1,7.54,13.87,13.87,0,0,0,33,21.16,13.87,13.87,0,0,0,47.1,34.77Zm0,0"/><path class="cls-2" d="M110.42,45.45a4.17,4.17,0,0,0-5.36,2.19l-9.24,22H75.25a4.21,4.21,0,0,0-1.77.4,4,4,0,0,0-2.34,3.57,4,4,0,0,0,4.11,4H98.59a4.12,4.12,0,0,0,3.81-2.48l10.28-24.45a3.92,3.92,0,0,0-2.27-5.17Zm0,0"/><path class="cls-2" d="M50.3,22.19a3.14,3.14,0,0,0-3.2-3.08h0A3.14,3.14,0,0,0,43.9,22.2v4.74a3.07,3.07,0,0,0,1.53,2.62L59.1,37.64a3.27,3.27,0,0,0,1.67.46,3.22,3.22,0,0,0,2.73-1.47,3,3,0,0,0-1.05-4.24L50.3,25.21Zm0,0"/><path class="cls-2" d="M90.5,61.08a5.05,5.05,0,0,0-5.14-5H66.82L54.13,44.31l5.5,3.34a10.17,10.17,0,0,0-10.31-9.58H44.9A10.17,10.17,0,0,0,34.55,48V74.66a2.93,2.93,0,0,0,3,2.88H56.68a2.93,2.93,0,0,0,3-2.88V68.8a6,6,0,0,1-1.34-1.3L47,51.45l14.18,13.2A5.24,5.24,0,0,0,64.75,66H85.36a5.05,5.05,0,0,0,5.14-5Zm0,0"/></svg>