<svg id="Layer_1" data-name="Layer 1" xmlns="http://www.w3.org/2000/svg" viewBox="0 0 148 142"><defs><style>.cls-1{fill:#3cba54;}.cls-2{fill:#fff;}</style></defs><title>Artboard 11</title><circle class="cls-1" cx="74.48" cy="71.55" r="60"/><path class="cls-2" d="M103.27,88.22a2.79,2.79,0,0,1-.85,2.44L94.3,98.72a4.56,4.56,0,0,1-1.44,1,5.92,5.92,0,0,1-1.74.55l-.37,0c-.2,0-.47,0-.79,0a28,28,0,0,1-3.75-.4,28.43,28.43,0,0,1-6.35-2,53.23,53.23,0,0,1-8.51-4.67A63.54,63.54,0,0,1,61.23,84.8a66.85,66.85,0,0,1-7.08-8.06,57.5,57.5,0,0,1-4.52-7.11,38.39,38.39,0,0,1-2.56-5.92,31.31,31.31,0,0,1-1.16-4.58,15.07,15.07,0,0,1-.24-3c0-.73.06-1.14.06-1.22a5.92,5.92,0,0,1,.55-1.74,4.58,4.58,0,0,1,1-1.44l8.12-8.12a2.69,2.69,0,0,1,2-.86,2.27,2.27,0,0,1,1.4.46,4.23,4.23,0,0,1,1,1.13l6.53,12.4a3,3,0,0,1,.3,2.14,3.8,3.8,0,0,1-1,2l-3,3a1,1,0,0,0-.21.4,1.5,1.5,0,0,0-.09.46,11,11,0,0,0,1.1,2.93,26.87,26.87,0,0,0,2.26,3.57A39.62,39.62,0,0,0,70,76a40.17,40.17,0,0,0,4.88,4.37,28.17,28.17,0,0,0,3.57,2.29,9.42,9.42,0,0,0,2.2.88l.76.15a1.45,1.45,0,0,0,.4-.09,1,1,0,0,0,.4-.21l3.48-3.54a3.74,3.74,0,0,1,2.56-1,3.19,3.19,0,0,1,1.65.37H90l11.78,7A3.07,3.07,0,0,1,103.27,88.22Z"/></svg>