<svg id="Layer_1" data-name="Layer 1" xmlns="http://www.w3.org/2000/svg" viewBox="0 0 131 125"><defs><style>.cls-1{fill:#e65261;}.cls-2,.cls-3{fill:none;stroke:#e65261;stroke-miterlimit:10;}.cls-2{stroke-width:3px;}</style></defs><title>Artboard 31</title><path class="cls-1" d="M110.48,6.47,87,30a1.5,1.5,0,0,0,2.12,2.12L112.6,8.59a1.5,1.5,0,0,0-2.12-2.12Z"/><path class="cls-1" d="M103.06,7.69l9.22-.11-1.5-1.5.8,9.75c.16,1.91,3.16,1.93,3,0l-.8-9.75a1.53,1.53,0,0,0-1.5-1.5l-9.22.11a1.5,1.5,0,0,0,0,3Z"/><path class="cls-2" d="M78,53.15a2.15,2.15,0,0,1-1.07,2.73L57.72,64.25a3.09,3.09,0,0,1-1.28.32A3.22,3.22,0,0,1,53.7,63L44.19,47.52a3.64,3.64,0,0,1,.94-4.84,3.15,3.15,0,0,1,4.53,1l9.48,15.42L75.42,52A1.92,1.92,0,0,1,78,53.15Z"/><path class="cls-2" d="M56.44,23c-12.05,0-22.72,6.43-29.17,16.23a18,18,0,0,1,3.9,3.85A30.23,30.23,0,0,1,52.78,28.83l3.66,6.62,3.66-6.62C73.95,30.61,85,42.38,86.62,57.17l-6.19,3.91L86.62,65A32.8,32.8,0,0,1,72.68,88.51a10.46,10.46,0,0,1,.8,3.59,10.13,10.13,0,0,1-.23,2.56c11.2-6.43,18.83-19.06,18.83-33.57,0-21-16-38.08-35.65-38.08Z"/><path class="cls-2" d="M65.53,85.72c-8.22-7.06-10.52-3.59-14.24.4-2.6,2.78-9.19-3-14.88-9.1S25.29,63.9,27.89,61.11c3.73-4,7-6.44.37-15.22s-11-2-14.62,1.82c-4.17,4.45-.22,21,15.13,37.45s30.89,20.62,35.06,16.17c3.61-3.86,9.92-8.56,1.71-15.62Z"/><rect class="cls-3" x="93.07" y="86.72" width="1.26" height="28.79"/><path class="cls-3" d="M93.07,115.51V114.2h29.73a.27.27,0,0,1,.27.27v.77a.27.27,0,0,1-.27.27Z"/><rect class="cls-3" x="96.82" y="103.91" width="4.9" height="10.7" rx="0.4" ry="0.4"/><rect class="cls-3" x="103.18" y="97.61" width="4.9" height="17.42" rx="0.4" ry="0.4"/><rect class="cls-3" x="109.97" y="99.85" width="4.9" height="15.18" rx="0.33" ry="0.33"/><rect class="cls-3" x="116.69" y="93.53" width="4.9" height="21.08" rx="0.31" ry="0.31"/></svg>