<svg id="Layer_1" data-name="Layer 1" xmlns="http://www.w3.org/2000/svg" viewBox="0 0 101 98"><defs><style>.cls-1,.cls-3{fill:none;stroke:#46c9a9;stroke-miterlimit:10;}.cls-1{stroke-width:3px;}.cls-2{fill:#46c9a9;}</style></defs><title>Artboard 32</title><path class="cls-1" d="M78,75.36a3.39,3.39,0,0,1-1,3l-9.85,9.79a5.54,5.54,0,0,1-1.74,1.26,7.18,7.18,0,0,1-2.11.67l-.45,0c-.25,0-.57,0-1,0a34,34,0,0,1-4.56-.48,34.53,34.53,0,0,1-7.71-2.37,64.64,64.64,0,0,1-10.34-5.67A77.17,77.17,0,0,1,27,71.21a81.19,81.19,0,0,1-8.6-9.79,69.83,69.83,0,0,1-5.48-8.64,46.62,46.62,0,0,1-3.11-7.19A38,38,0,0,1,8.37,40a18.3,18.3,0,0,1-.3-3.67c0-.89.08-1.38.08-1.48a7.19,7.19,0,0,1,.67-2.11A5.56,5.56,0,0,1,10.07,31l9.86-9.86a3.26,3.26,0,0,1,2.37-1,2.76,2.76,0,0,1,1.7.56A5.14,5.14,0,0,1,25.26,22L33.19,37.1a3.61,3.61,0,0,1,.37,2.59,4.62,4.62,0,0,1-1.26,2.37L28.67,45.7a1.24,1.24,0,0,0-.26.48,1.82,1.82,0,0,0-.11.56,13.38,13.38,0,0,0,1.33,3.56,32.63,32.63,0,0,0,2.74,4.34,48.11,48.11,0,0,0,5.26,5.89,48.78,48.78,0,0,0,5.93,5.3,34.21,34.21,0,0,0,4.34,2.78,11.44,11.44,0,0,0,2.67,1.07l.92.19a1.76,1.76,0,0,0,.48-.11,1.24,1.24,0,0,0,.48-.26l4.22-4.3A4.54,4.54,0,0,1,59.79,64a3.87,3.87,0,0,1,2,.44h.07l14.3,8.45A3.73,3.73,0,0,1,78,75.36Z"/><path class="cls-2" d="M71.38,28.11,92.81,6.44c1.36-1.37-.76-3.5-2.12-2.12L69.26,26c-1.36,1.37.76,3.5,2.12,2.12Z"/><path class="cls-2" d="M78.22,26.62l-8.57.25,1.5,1.5-.9-8.8c-.2-1.9-3.2-1.92-3,0l.9,8.8a1.53,1.53,0,0,0,1.5,1.5l8.57-.25c1.93-.06,1.93-3.06,0-3Z"/><rect class="cls-3" x="48.84" y="28.37" width="1.26" height="28.79"/><path class="cls-3" d="M48.84,57.16V55.85H78.58a.27.27,0,0,1,.27.27v.77a.27.27,0,0,1-.27.27Z"/><rect class="cls-3" x="52.59" y="45.56" width="4.9" height="10.7" rx="0.4" ry="0.4"/><rect class="cls-3" x="58.95" y="39.27" width="4.9" height="17.42" rx="0.4" ry="0.4"/><rect class="cls-3" x="65.75" y="41.5" width="4.9" height="15.18" rx="0.33" ry="0.33"/><rect class="cls-3" x="72.46" y="35.18" width="4.9" height="21.08" rx="0.31" ry="0.31"/></svg>