<svg id="Layer_1" data-name="Layer 1" xmlns="http://www.w3.org/2000/svg" viewBox="0 0 124 102"><defs><style>.cls-1,.cls-3{fill:none;stroke:#46c9a9;stroke-miterlimit:10;}.cls-1{stroke-width:3px;}.cls-2{fill:#46c9a9;}</style></defs><title>Artboard 27</title><path class="cls-1" d="M92,77.36a3.39,3.39,0,0,1-1,3l-9.85,9.79a5.54,5.54,0,0,1-1.74,1.26,7.18,7.18,0,0,1-2.11.67l-.45,0c-.25,0-.57,0-1,0a34,34,0,0,1-4.56-.48,34.53,34.53,0,0,1-7.71-2.37A64.64,64.64,0,0,1,53.2,83.59a77.17,77.17,0,0,1-12.3-10.38,81.19,81.19,0,0,1-8.6-9.79,69.83,69.83,0,0,1-5.48-8.64,46.62,46.62,0,0,1-3.11-7.19A38,38,0,0,1,22.3,42a18.3,18.3,0,0,1-.3-3.67c0-.89.08-1.38.08-1.48a7.19,7.19,0,0,1,.67-2.11A5.56,5.56,0,0,1,24,33l9.86-9.86a3.26,3.26,0,0,1,2.37-1,2.76,2.76,0,0,1,1.7.56A5.14,5.14,0,0,1,39.19,24L47.12,39.1a3.61,3.61,0,0,1,.37,2.59,4.62,4.62,0,0,1-1.26,2.37L42.6,47.7a1.24,1.24,0,0,0-.26.48,1.82,1.82,0,0,0-.11.56,13.38,13.38,0,0,0,1.33,3.56,32.63,32.63,0,0,0,2.74,4.34,48.11,48.11,0,0,0,5.26,5.89,48.78,48.78,0,0,0,5.93,5.3,34.21,34.21,0,0,0,4.34,2.78,11.44,11.44,0,0,0,2.67,1.07l.92.19a1.76,1.76,0,0,0,.48-.11,1.24,1.24,0,0,0,.48-.26l4.22-4.3A4.54,4.54,0,0,1,73.72,66a3.87,3.87,0,0,1,2,.44h.07l14.3,8.45A3.73,3.73,0,0,1,92,77.36Z"/><path class="cls-2" d="M103.36,7.95,81.4,29.1c-1.39,1.34.73,3.46,2.12,2.12l22-21.15c1.39-1.34-.73-3.46-2.12-2.12Z"/><path class="cls-2" d="M96.47,9.23,105,9.14l-1.5-1.5.74,8.81c.16,1.91,3.16,1.93,3,0l-.74-8.81a1.53,1.53,0,0,0-1.5-1.5l-8.58.09a1.5,1.5,0,0,0,0,3Z"/><rect class="cls-3" x="56.61" y="30.37" width="1.26" height="28.79"/><path class="cls-3" d="M56.61,59.16V57.85H86.34a.27.27,0,0,1,.27.27v.77a.27.27,0,0,1-.27.27Z"/><rect class="cls-3" x="60.36" y="47.56" width="4.9" height="10.7" rx="0.4" ry="0.4"/><rect class="cls-3" x="66.71" y="41.27" width="4.9" height="17.42" rx="0.4" ry="0.4"/><rect class="cls-3" x="73.51" y="43.5" width="4.9" height="15.18" rx="0.33" ry="0.33"/><rect class="cls-3" x="80.23" y="37.18" width="4.9" height="21.08" rx="0.31" ry="0.31"/></svg>