<svg id="Layer_1" data-name="Layer 1" xmlns="http://www.w3.org/2000/svg" viewBox="0 0 121 102"><defs><style>.cls-1{fill:#3cba54;}</style></defs><title>Artboard 3</title><path class="cls-1" d="M34.33,10.53c.1,0,.12,0,.15,0a2.83,2.83,0,0,1,.65.69l9,17.08,0,0,0,0a1.13,1.13,0,0,1,.1.88,2.29,2.29,0,0,1-.63,1.21l-4.15,4.15a4.28,4.28,0,0,0-1,1.72A5,5,0,0,0,38.19,38v.28l.05.28A17.91,17.91,0,0,0,40,43.36a39.78,39.78,0,0,0,3.39,5.38,58,58,0,0,0,6.32,7.1,58.84,58.84,0,0,0,7.13,6.36,41.55,41.55,0,0,0,5.36,3.43A15.4,15.4,0,0,0,66,67.12l1.06.21.29.06h.3a4.65,4.65,0,0,0,1.51-.28,4.31,4.31,0,0,0,1.73-1l4.74-4.83a2.2,2.2,0,0,1,1.5-.54,2.37,2.37,0,0,1,.74.08h0l.71.43h.09l15.61,9.23c.52.33.67.59.71.74a.88.88,0,0,1-.34.76L83.45,83.11l-.06.06-.06.06a3.42,3.42,0,0,1-1.07.75,5.39,5.39,0,0,1-1.42.48l-.49,0c-.11,0-.35,0-.81,0A35.06,35.06,0,0,1,74.8,84a36.79,36.79,0,0,1-8.11-2.52,71.31,71.31,0,0,1-11.32-6.22,85.79,85.79,0,0,1-13.6-11.49A90.23,90.23,0,0,1,32.27,53a77.22,77.22,0,0,1-6-9.5,50.58,50.58,0,0,1-3.36-7.75,40.73,40.73,0,0,1-1.5-5.91,17.73,17.73,0,0,1-.31-3.56c0-.9.07-1.34.08-1.58a5.45,5.45,0,0,1,.47-1.4,3.43,3.43,0,0,1,.75-1.07l.06-.05.05-.05L33.74,10.84c.31-.31.48-.31.59-.31m0-3a3.73,3.73,0,0,0-2.71,1.19L20.36,20a6.35,6.35,0,0,0-1.44,2,8.22,8.22,0,0,0-.76,2.41c0,.11,0,.68-.09,1.69a20.92,20.92,0,0,0,.34,4.2A43.46,43.46,0,0,0,20,36.64a53.28,53.28,0,0,0,3.56,8.22,79.81,79.81,0,0,0,6.27,9.87,92.77,92.77,0,0,0,9.82,11.19A88.19,88.19,0,0,0,53.72,77.79a73.88,73.88,0,0,0,11.82,6.48A39.47,39.47,0,0,0,74.35,87a38.91,38.91,0,0,0,5.21.55c.45,0,.82,0,1.1,0l.51,0a8.21,8.21,0,0,0,2.41-.76,6.33,6.33,0,0,0,2-1.44L96.83,74.06A3.87,3.87,0,0,0,98,70.67a4.27,4.27,0,0,0-2.12-2.8L79.55,58.21h-.08a4.43,4.43,0,0,0-2.29-.51,5.19,5.19,0,0,0-3.56,1.36L68.8,64a1.42,1.42,0,0,1-.55.3,2,2,0,0,1-.55.13l-1.06-.21a13.08,13.08,0,0,1-3-1.23,39.11,39.11,0,0,1-5-3.18,55.75,55.75,0,0,1-6.77-6.06,55,55,0,0,1-6-6.74,37.29,37.29,0,0,1-3.13-5A15.29,15.29,0,0,1,41.19,38a2.08,2.08,0,0,1,.13-.64,1.42,1.42,0,0,1,.3-.55l4.15-4.15A5.28,5.28,0,0,0,47.2,29.9a4.12,4.12,0,0,0-.42-3L37.72,9.73a5.87,5.87,0,0,0-1.44-1.57,3.15,3.15,0,0,0-1.95-.64Z"/><path class="cls-1" d="M65.52,42.52,88.21,21c1.4-1.33-.72-3.45-2.12-2.12L63.4,40.4c-1.4,1.33.72,3.45,2.12,2.12Z"/><path class="cls-1" d="M72.52,41.33l-8.79,0,1.5,1.5-.63-9.07c-.13-1.92-3.13-1.93-3,0l.63,9.07a1.53,1.53,0,0,0,1.5,1.5l8.79,0a1.5,1.5,0,0,0,0-3Z"/></svg>