<svg id="Layer_1" data-name="Layer 1" xmlns="http://www.w3.org/2000/svg" viewBox="0 0 105 98"><defs><style>.cls-1{fill:#37b7f7;}</style></defs><title>Artboard 2</title><path class="cls-1" d="M32.26,12.53c.1,0,.12,0,.15,0a2.83,2.83,0,0,1,.65.69l9,17.08,0,0,0,0a1.13,1.13,0,0,1,.1.88,2.29,2.29,0,0,1-.63,1.21l-4.15,4.15a4.28,4.28,0,0,0-1,1.72A5,5,0,0,0,36.12,40v.28l.05.28A17.91,17.91,0,0,0,38,45.36a39.79,39.79,0,0,0,3.39,5.38,58.05,58.05,0,0,0,6.32,7.1A58.84,58.84,0,0,0,54.8,64.2a41.54,41.54,0,0,0,5.36,3.43A15.4,15.4,0,0,0,64,69.12l1.06.21.29.06h.3a4.64,4.64,0,0,0,1.51-.28,4.31,4.31,0,0,0,1.73-1l4.74-4.83a2.2,2.2,0,0,1,1.5-.54,2.37,2.37,0,0,1,.74.08h0l.71.43h.09l15.61,9.23c.52.33.67.59.71.74a.88.88,0,0,1-.34.76L81.39,85.11l-.06.06-.06.06A3.42,3.42,0,0,1,80.2,86a5.39,5.39,0,0,1-1.42.48l-.49,0c-.11,0-.35,0-.81,0A35.06,35.06,0,0,1,72.73,86a36.79,36.79,0,0,1-8.11-2.52A71.3,71.3,0,0,1,53.3,77.27,85.79,85.79,0,0,1,39.7,65.78,90.24,90.24,0,0,1,30.2,55a77.22,77.22,0,0,1-6-9.5,50.56,50.56,0,0,1-3.36-7.75,40.72,40.72,0,0,1-1.5-5.91A17.72,17.72,0,0,1,19,28.26c0-.9.07-1.34.08-1.58a5.46,5.46,0,0,1,.47-1.4,3.43,3.43,0,0,1,.75-1.07l.06-.05.05-.05L31.67,12.84c.31-.31.48-.31.59-.31m0-3a3.73,3.73,0,0,0-2.71,1.19L18.29,22a6.35,6.35,0,0,0-1.44,2,8.22,8.22,0,0,0-.76,2.41c0,.11,0,.68-.09,1.69a20.91,20.91,0,0,0,.34,4.2,43.44,43.44,0,0,0,1.61,6.36,53.27,53.27,0,0,0,3.56,8.22,79.82,79.82,0,0,0,6.27,9.87A92.78,92.78,0,0,0,37.6,67.92,88.19,88.19,0,0,0,51.66,79.79a73.88,73.88,0,0,0,11.81,6.48A39.46,39.46,0,0,0,72.28,89a38.9,38.9,0,0,0,5.21.55c.45,0,.82,0,1.1,0l.51,0a8.21,8.21,0,0,0,2.41-.76,6.33,6.33,0,0,0,2-1.44L94.76,76.06a3.87,3.87,0,0,0,1.19-3.39,4.27,4.27,0,0,0-2.12-2.8L77.48,60.21H77.4a4.43,4.43,0,0,0-2.29-.51,5.19,5.19,0,0,0-3.56,1.36L66.73,66a1.42,1.42,0,0,1-.55.3,2,2,0,0,1-.55.13l-1.06-.21a13.07,13.07,0,0,1-3-1.23,39.1,39.1,0,0,1-5-3.18,55.74,55.74,0,0,1-6.77-6.06,55,55,0,0,1-6-6.74,37.29,37.29,0,0,1-3.13-5A15.29,15.29,0,0,1,39.12,40a2.08,2.08,0,0,1,.13-.64,1.42,1.42,0,0,1,.3-.55l4.15-4.15a5.28,5.28,0,0,0,1.44-2.71,4.12,4.12,0,0,0-.42-3l-9.06-17.2a5.87,5.87,0,0,0-1.44-1.57,3.15,3.15,0,0,0-1.95-.64Z"/><path class="cls-1" d="M82.65,22.21,60,43.78c-1.4,1.33.72,3.45,2.12,2.12L84.78,24.33c1.4-1.33-.72-3.45-2.12-2.12Z"/><path class="cls-1" d="M75.65,23.42l8.79,0-1.5-1.5L83.58,31c.13,1.92,3.14,1.93,3,0l-.64-9.07a1.53,1.53,0,0,0-1.5-1.5l-8.79,0a1.5,1.5,0,0,0,0,3Z"/></svg>