<svg id="Layer_1" data-name="Layer 1" xmlns="http://www.w3.org/2000/svg" viewBox="0 0 100 95"><defs><style>.cls-1{opacity:0.4;}</style></defs><title>Artboard 4</title><g class="cls-1"><path d="M79,66.38a2.42,2.42,0,0,1-.74,2.12l-7,7a4,4,0,0,1-1.24.9,5.13,5.13,0,0,1-1.51.48l-.32,0c-.18,0-.41,0-.69,0a24.32,24.32,0,0,1-3.25-.34,24.67,24.67,0,0,1-5.5-1.7,46.17,46.17,0,0,1-7.38-4.05,55.12,55.12,0,0,1-8.79-7.42,58,58,0,0,1-6.14-7,49.88,49.88,0,0,1-3.92-6.17,33.3,33.3,0,0,1-2.22-5.14,27.16,27.16,0,0,1-1-4A13.07,13.07,0,0,1,29,38.52c0-.63.05-1,.05-1.06a5.14,5.14,0,0,1,.48-1.51,4,4,0,0,1,.9-1.25l7-7a2.33,2.33,0,0,1,1.69-.74,2,2,0,0,1,1.22.4,3.67,3.67,0,0,1,.9,1L46.94,39a2.58,2.58,0,0,1,.26,1.85,3.3,3.3,0,0,1-.9,1.7l-2.59,2.6a.88.88,0,0,0-.19.34,1.3,1.3,0,0,0-.08.4,9.56,9.56,0,0,0,1,2.54,23.31,23.31,0,0,0,2,3.1,34.37,34.37,0,0,0,3.76,4.21,34.84,34.84,0,0,0,4.23,3.79,24.44,24.44,0,0,0,3.1,2,8.17,8.17,0,0,0,1.91.77l.66.13a1.26,1.26,0,0,0,.34-.08.89.89,0,0,0,.34-.18l3-3.07a3.25,3.25,0,0,1,2.22-.85,2.77,2.77,0,0,1,1.43.32h.05l10.22,6A2.67,2.67,0,0,1,79,66.38Z"/><path d="M59.05,49.18,73.24,35.72c1.4-1.33-.72-3.45-2.12-2.12L56.93,47.06c-1.4,1.33.72,3.45,2.12,2.12Z"/><path d="M63,47.48l-5.49,0L59,49l-.39-5.67c-.13-1.92-3.13-1.93-3,0L56,49a1.53,1.53,0,0,0,1.5,1.5l5.49,0a1.5,1.5,0,0,0,0-3Z"/></g></svg>