<svg id="Layer_1" data-name="Layer 1" xmlns="http://www.w3.org/2000/svg" viewBox="0 0 91 91"><defs><style>.cls-1{opacity:0.4;}</style></defs><title>Artboard 5</title><g class="cls-1"><path d="M69.09,60.14a2.42,2.42,0,0,1-.74,2.12l-7,7a4,4,0,0,1-1.24.9,5.13,5.13,0,0,1-1.51.48l-.32,0c-.18,0-.41,0-.69,0a24.32,24.32,0,0,1-3.25-.34,24.67,24.67,0,0,1-5.5-1.7,46.17,46.17,0,0,1-7.38-4.05,55.12,55.12,0,0,1-8.79-7.42,58,58,0,0,1-6.14-7A49.88,49.88,0,0,1,22.56,44a33.3,33.3,0,0,1-2.22-5.14,27.16,27.16,0,0,1-1-4,13.07,13.07,0,0,1-.21-2.62c0-.63.05-1,.05-1.06a5.14,5.14,0,0,1,.48-1.51,4,4,0,0,1,.9-1.25l7-7a2.33,2.33,0,0,1,1.69-.74,2,2,0,0,1,1.22.4,3.67,3.67,0,0,1,.9,1l5.66,10.75a2.58,2.58,0,0,1,.26,1.85,3.3,3.3,0,0,1-.9,1.7l-2.59,2.6a.88.88,0,0,0-.19.34,1.3,1.3,0,0,0-.08.4,9.56,9.56,0,0,0,1,2.54,23.31,23.31,0,0,0,2,3.1,34.37,34.37,0,0,0,3.76,4.21,34.84,34.84,0,0,0,4.23,3.79,24.44,24.44,0,0,0,3.1,2,8.17,8.17,0,0,0,1.91.77l.66.13a1.26,1.26,0,0,0,.34-.08.89.89,0,0,0,.34-.18l3-3.07A3.25,3.25,0,0,1,56.07,52a2.77,2.77,0,0,1,1.43.32h.05l10.22,6A2.67,2.67,0,0,1,69.09,60.14Z"/><path d="M60.38,28.2,46.22,41.69c-1.4,1.33.72,3.45,2.12,2.12L62.5,30.32c1.4-1.33-.72-3.45-2.12-2.12Z"/><path d="M56.4,29.92H61.9l-1.5-1.5.4,5.67c.13,1.92,3.14,1.93,3,0l-.4-5.67a1.53,1.53,0,0,0-1.5-1.5H56.4a1.5,1.5,0,0,0,0,3Z"/></g></svg>