<svg id="Layer_1" data-name="Layer 1" xmlns="http://www.w3.org/2000/svg" viewBox="0 0 68 61"><defs><style>.cls-1{fill:#f43838;}.cls-2{fill:#fff;}</style></defs><title>Artboard 6</title><circle class="cls-1" cx="33.87" cy="30.13" r="20"/><path class="cls-2" d="M23.15,34.6a.93.93,0,0,1-.37-.78V30a1.52,1.52,0,0,1,.09-.58,2,2,0,0,1,.28-.54l.08-.09.18-.19a9.34,9.34,0,0,1,1-.79,9.48,9.48,0,0,1,2-1,17.74,17.74,0,0,1,3.11-.91,21.18,21.18,0,0,1,4.4-.37,22.28,22.28,0,0,1,3.57.23,19.17,19.17,0,0,1,2.74.61,12.8,12.8,0,0,1,2,.79,10.44,10.44,0,0,1,1.35.81,5,5,0,0,1,.77.65l.27.3a2,2,0,0,1,.28.54A1.53,1.53,0,0,1,45,30v3.83a.9.9,0,0,1-.26.66.76.76,0,0,1-.44.22,1.41,1.41,0,0,1-.51,0l-4.46-1.38a1,1,0,0,1-.58-.43,1.27,1.27,0,0,1-.22-.71V30.78a.34.34,0,0,0,0-.14.5.5,0,0,0-.09-.13,3.67,3.67,0,0,0-.95-.43A9,9,0,0,0,36,29.76a13.21,13.21,0,0,0-2.17-.12,13.39,13.39,0,0,0-2.18.12,9.39,9.39,0,0,0-1.38.3,3.14,3.14,0,0,0-.73.31l-.22.14a.48.48,0,0,0-.07.12.34.34,0,0,0,0,.14v1.65a1.25,1.25,0,0,1-.37.83,1.06,1.06,0,0,1-.47.3h0L24,34.72A1,1,0,0,1,23.15,34.6Z"/></svg>