<svg id="Layer_1" data-name="Layer 1" xmlns="http://www.w3.org/2000/svg" viewBox="0 0 103 99"><defs><style>.cls-1{fill:#f43838;}.cls-2{fill:#fff;}</style></defs><title>Artboard 7</title><circle class="cls-1" cx="51.49" cy="49.48" r="35"/><path class="cls-2" d="M32.74,57.32A1.63,1.63,0,0,1,32.08,56l0-6.67a2.66,2.66,0,0,1,.16-1,3.45,3.45,0,0,1,.49-.94l.14-.16c.08-.09.18-.21.31-.34a16.35,16.35,0,0,1,1.71-1.38,16.59,16.59,0,0,1,3.42-1.81A31.05,31.05,0,0,1,43.78,42a37.07,37.07,0,0,1,7.7-.65,39,39,0,0,1,6.24.41,33.54,33.54,0,0,1,4.8,1.07A22.4,22.4,0,0,1,66,44.25a18.27,18.27,0,0,1,2.37,1.41,8.79,8.79,0,0,1,1.35,1.15l.48.53a3.46,3.46,0,0,1,.49.94,2.67,2.67,0,0,1,.16,1V56a1.57,1.57,0,0,1-.45,1.16,1.32,1.32,0,0,1-.77.39,2.47,2.47,0,0,1-.89,0L61,55.09a1.73,1.73,0,0,1-1-.76,2.22,2.22,0,0,1-.38-1.23V50.63a.59.59,0,0,0-.08-.25.87.87,0,0,0-.15-.23,6.43,6.43,0,0,0-1.66-.76,15.67,15.67,0,0,0-2.4-.54,23.11,23.11,0,0,0-3.79-.21,23.43,23.43,0,0,0-3.81.21,16.43,16.43,0,0,0-2.42.53,5.49,5.49,0,0,0-1.27.54l-.38.25a.85.85,0,0,0-.13.2.6.6,0,0,0-.08.25l0,2.9A2.18,2.18,0,0,1,42.78,55a1.86,1.86,0,0,1-.83.53l0,0-7.73,2A1.79,1.79,0,0,1,32.74,57.32Z"/></svg>