<svg id="Layer_1" data-name="Layer 1" xmlns="http://www.w3.org/2000/svg" viewBox="0 0 36 47"><defs><style>.cls-1{fill:#f9c023;}</style></defs><title>Artboard 24</title><path class="cls-1" d="M26.32,12.66H23V11.45a.88.88,0,0,0-1.76,0v1.21H18.08V11.45a.88.88,0,0,0-1.76,0v1.21H13.16V11.45a.88.88,0,0,0-1.76,0v1.21H8.08a.85.85,0,0,0-.88.82V34.81a.85.85,0,0,0,.88.82H26.32a.85.85,0,0,0,.88-.82V13.48a.85.85,0,0,0-.88-.82ZM25.44,34H9V14.3H11.4v1a.88.88,0,0,0,1.76,0v-1h3.16v1a.88.88,0,0,0,1.76,0v-1h3.16v1a.88.88,0,0,0,1.76,0v-1h2.44Zm0,0"/><path class="cls-1" d="M22.4,19.81H12a.82.82,0,1,0,0,1.64H22.4a.82.82,0,1,0,0-1.64Zm0,0"/><path class="cls-1" d="M22.4,24.4H12A.82.82,0,1,0,12,26H22.4a.82.82,0,1,0,0-1.64Zm0,0"/><path class="cls-1" d="M22.4,29H12a.82.82,0,1,0,0,1.64H22.4a.82.82,0,1,0,0-1.64Zm0,0"/></svg>