<svg id="Layer_1" data-name="Layer 1" xmlns="http://www.w3.org/2000/svg" viewBox="0 0 93 83"><defs><style>.cls-1{fill:#f9c023;}.cls-2{fill:#fff;}</style></defs><title>Artboard 35</title><circle class="cls-1" cx="47.92" cy="42.48" r="35"/><path class="cls-2" d="M62.11,26.19H56.94V24.32a1.37,1.37,0,0,0-2.73,0v1.88H49.28V24.32a1.37,1.37,0,0,0-2.73,0v1.88H41.63V24.32a1.37,1.37,0,0,0-2.73,0v1.88H33.73a1.32,1.32,0,0,0-1.37,1.28V60.65a1.32,1.32,0,0,0,1.37,1.28H62.11a1.32,1.32,0,0,0,1.37-1.28V27.47a1.32,1.32,0,0,0-1.37-1.28ZM60.74,59.38H35.1V28.75h3.8v1.49a1.37,1.37,0,0,0,2.73,0V28.75h4.92v1.49a1.37,1.37,0,0,0,2.73,0V28.75h4.92v1.49a1.37,1.37,0,0,0,2.73,0V28.75h3.8Zm0,0"/><path class="cls-2" d="M56,37.31H39.82a1.28,1.28,0,1,0,0,2.55H56a1.28,1.28,0,1,0,0-2.55Zm0,0"/><path class="cls-2" d="M56,44.46H39.82a1.28,1.28,0,1,0,0,2.55H56a1.28,1.28,0,1,0,0-2.55Zm0,0"/><path class="cls-2" d="M56,51.61H39.82a1.28,1.28,0,1,0,0,2.55H56a1.28,1.28,0,1,0,0-2.55Zm0,0"/></svg>