<svg id="Layer_1" data-name="Layer 1" xmlns="http://www.w3.org/2000/svg" viewBox="0 0 45 41"><defs><style>.cls-1{opacity:0.5;}</style></defs><title>Artboard 14</title><g class="cls-1"><path d="M32.09,9.29l-8.15,8.14A.75.75,0,0,0,25,18.49l8.15-8.14a.75.75,0,0,0-1.06-1.06Z"/><path d="M29.72,10.06h3.16l-.75-.75.23,3.42c.06,1,1.56,1,1.5,0l-.23-3.42a.77.77,0,0,0-.75-.75H29.72a.75.75,0,0,0,0,1.5Z"/></g><g class="cls-1"><path d="M14.13,29.33l8.16-8.12a.75.75,0,0,0-1.06-1.06l-8.16,8.12a.75.75,0,0,0,1.06,1.06Z"/><path d="M16.49,28.56H13.33l.75.75-.22-3.42c-.06-1-1.56-1-1.5,0l.22,3.42a.77.77,0,0,0,.75.75h3.16a.75.75,0,0,0,0-1.5Z"/></g></svg>