<svg id="Layer_1" data-name="Layer 1" xmlns="http://www.w3.org/2000/svg" viewBox="0 0 131 115"><defs><style>.cls-1{fill:#f36426;}.cls-2{fill:none;stroke:#f36426;stroke-miterlimit:10;stroke-width:3px;}</style></defs><title>Artboard 29</title><path class="cls-1" d="M111.42,9.78,88,33.33a1.5,1.5,0,0,0,2.12,2.12L113.54,11.9a1.5,1.5,0,0,0-2.12-2.12Z"/><path class="cls-1" d="M104,11l9.22-.11-1.5-1.5.8,9.75c.16,1.91,3.16,1.93,3,0l-.8-9.75a1.53,1.53,0,0,0-1.5-1.5L104,8a1.5,1.5,0,0,0,0,3Z"/><path class="cls-2" d="M78.92,59.56a2.15,2.15,0,0,1-1.07,2.73L58.66,70.66a3.09,3.09,0,0,1-1.28.32,3.22,3.22,0,0,1-2.74-1.58L45.13,53.93a3.64,3.64,0,0,1,.94-4.84,3.15,3.15,0,0,1,4.53,1l9.48,15.42,16.29-7.11a1.92,1.92,0,0,1,2.56,1.15Z"/><path class="cls-2" d="M57.37,29.4c-12.05,0-22.72,6.43-29.17,16.23a18,18,0,0,1,3.9,3.85A30.23,30.23,0,0,1,53.71,35.23l3.66,6.62L61,35.23C74.88,37,85.89,48.78,87.56,63.57l-6.19,3.91,6.19,3.91A32.8,32.8,0,0,1,73.62,94.91a10.46,10.46,0,0,1,.8,3.59,10.13,10.13,0,0,1-.23,2.56C85.39,94.63,93,82,93,67.49c0-21-16-38.08-35.65-38.08Z"/><path class="cls-2" d="M66.47,92.12c-8.22-7.06-10.52-3.59-14.24.4-2.6,2.78-9.19-3-14.88-9.1S26.22,70.3,28.83,67.52c3.73-4,7-6.44.37-15.22s-11-2-14.62,1.82c-4.17,4.45-.22,21,15.13,37.45s30.89,20.62,35.06,16.17c3.61-3.86,9.92-8.56,1.71-15.62Z"/></svg>