<svg id="Layer_1" data-name="Layer 1" xmlns="http://www.w3.org/2000/svg" viewBox="0 0 131 112"><defs><style>.cls-1{fill:#f36426;}.cls-2{fill:none;stroke:#f36426;stroke-miterlimit:10;stroke-width:3px;}</style></defs><title>Artboard 28</title><path class="cls-1" d="M94.51,29.33l24.7-22.09c1.44-1.29-.69-3.41-2.12-2.12L92.38,27.21c-1.44,1.29.69,3.41,2.12,2.12Z"/><path class="cls-1" d="M101.95,28.46l-9.31-.3,1.5,1.5L93.75,20c-.08-1.92-3.08-1.93-3,0l.39,9.61a1.53,1.53,0,0,0,1.5,1.5l9.31.3c1.93.06,1.93-2.94,0-3Z"/><path class="cls-2" d="M81.87,51.12a2.15,2.15,0,0,1-1.07,2.73L61.61,62.22a3.09,3.09,0,0,1-1.28.32A3.22,3.22,0,0,1,57.59,61L48.07,45.49A3.64,3.64,0,0,1,49,40.65a3.15,3.15,0,0,1,4.53,1L63,57.08,79.31,50a1.92,1.92,0,0,1,2.56,1.15Z"/><path class="cls-2" d="M60.32,21C48.27,21,37.6,27.39,31.15,37.2A18,18,0,0,1,35,41,30.23,30.23,0,0,1,56.66,26.79l3.66,6.62L64,26.79c13.85,1.78,24.86,13.54,26.53,28.34L84.31,59,90.51,63A32.8,32.8,0,0,1,76.57,86.47a10.46,10.46,0,0,1,.8,3.59,10.13,10.13,0,0,1-.23,2.56C88.34,86.19,96,73.55,96,59,96,38,80,21,60.32,21Z"/><path class="cls-2" d="M69.42,83.68c-8.22-7.06-10.52-3.59-14.24.4-2.6,2.78-9.19-3-14.88-9.1s-11.12-13.11-8.52-15.9c3.73-4,7-6.44.37-15.22s-11-2-14.62,1.82c-4.17,4.45-.22,21,15.13,37.45S63.54,103.75,67.71,99.3c3.61-3.86,9.92-8.56,1.71-15.62Z"/></svg>